<svg width="500" height="500" version="1.1" xmlns="http://www.w3.org/2000/svg" desc="Created with imagetracer.js version 1.2.6" ><path fill="rgb(0,0,0)" stroke="rgb(0,0,0)" stroke-width="1" opacity="0" d="M 0 0 L 500 0 L 500 500 L 0 500 L 0 0 Z M 217 120 L 196 124 L 176 126 L 175 127 Q 171 126 173 130 L 181 133 L 184 139 L 185 144 L 185 306 L 182 314 L 175 319 Q 172 318 173 321 L 240 321 L 240 320 L 234 316 L 229 310 L 229 188 L 240 184 L 250 182 L 267 183 L 274 187 L 275 190 Q 276 196 273 199 Q 264 205 260 217 L 260 309 L 258 313 L 250 319 Q 247 318 248 321 L 316 321 L 316 319 L 311 317 Q 306 314 304 308 L 304 209 L 300 195 L 296 189 Q 289 180 276 177 L 255 177 Q 253 179 249 178 L 230 185 L 229 125 L 228 123 L 226 120 L 217 120 Z M 343 286 L 336 289 Q 330 294 328 303 L 328 308 L 332 317 L 343 323 Q 353 324 358 320 Q 363 316 365 310 Q 366 299 362 294 Q 357 285 343 286 Z " /><path fill="rgb(22,22,22)" stroke="rgb(22,22,22)" stroke-width="1" opacity="0.9803921568627451" d="M 221.5 120 Q 225.3 119.3 226 121.5 L 224.5 121 Q 220.5 121.8 221.5 120 Z " /><path fill="rgb(22,22,22)" stroke="rgb(22,22,22)" stroke-width="1" opacity="0.9803921568627451" d="M 214.5 121 L 218 121.5 L 214.5 122 L 214.5 121 Z " /><path fill="rgb(22,22,22)" stroke="rgb(22,22,22)" stroke-width="1" opacity="0.9803921568627451" d="M 208.5 122 L 213 122.5 L 208.5 123 L 208.5 122 Z " /><path fill="rgb(22,22,22)" stroke="rgb(22,22,22)" stroke-width="1" opacity="0.9803921568627451" d="M 203.5 123 L 206 123.5 L 203.5 124 L 203.5 123 Z " /><path fill="rgb(22,22,22)" stroke="rgb(22,22,22)" stroke-width="1" opacity="0.9803921568627451" d="M 197.5 124 L 200 124.5 L 197.5 125 L 197.5 124 Z " /><path fill="rgb(22,22,22)" stroke="rgb(22,22,22)" stroke-width="1" opacity="0.9803921568627451" d="M 227.5 124 L 228 184.5 L 227.5 186 L 230.5 185 L 231 187 L 228 188.5 L 227.5 190 L 227 188.5 L 227 184.5 L 227.5 124 Z " /><path fill="rgb(22,22,22)" stroke="rgb(22,22,22)" stroke-width="1" opacity="0.9803921568627451" d="M 187.5 125 L 190 125.5 L 187.5 126 L 187.5 125 Z " /><path fill="rgb(22,22,22)" stroke="rgb(22,22,22)" stroke-width="1" opacity="0.9803921568627451" d="M 183.5 126 L 186 126.5 L 183.5 127 L 183.5 126 Z " /><path fill="rgb(22,22,22)" stroke="rgb(22,22,22)" stroke-width="1" opacity="0.9803921568627451" d="M 174.5 127 L 179 127.5 L 174.5 128 L 174.5 127 Z " /><path fill="rgb(22,22,22)" stroke="rgb(22,22,22)" stroke-width="1" opacity="0.9803921568627451" d="M 180.5 131 L 181.5 133 L 180.5 131 Z " /><path fill="rgb(22,22,22)" stroke="rgb(22,22,22)" stroke-width="1" opacity="0.9803921568627451" d="M 185.5 140 L 186 306.5 L 185 306.5 L 185.5 140 Z " /><path fill="rgb(22,22,22)" stroke="rgb(22,22,22)" stroke-width="1" opacity="0.9803921568627451" d="M 262.5 177 L 270 177.5 L 262.5 178 L 262.5 177 Z " /><path fill="rgb(22,22,22)" stroke="rgb(22,22,22)" stroke-width="1" opacity="0.9803921568627451" d="M 271.5 178 L 274 178.5 L 271.5 179 L 271.5 178 Z " /><path fill="rgb(22,22,22)" stroke="rgb(22,22,22)" stroke-width="1" opacity="0.9803921568627451" d="M 247.5 179 L 250 179.5 L 247.5 180 L 247.5 179 Z " /><path fill="rgb(22,22,22)" stroke="rgb(22,22,22)" stroke-width="1" opacity="0.9803921568627451" d="M 244.5 180 L 248 181.5 L 245.5 182 L 244.5 180 Z " /><path fill="rgb(22,22,22)" stroke="rgb(22,22,22)" stroke-width="1" opacity="0.9803921568627451" d="M 281.5 180 L 285 181.5 L 283.5 182 L 281.5 180 Z " /><path fill="rgb(22,22,22)" stroke="rgb(22,22,22)" stroke-width="1" opacity="0.9803921568627451" d="M 240 181 L 244 182.5 L 242.5 183 Q 241 180.5 239.5 184 L 237.5 183 L 237 185 L 232 186 L 232.5 184 Q 234 186.5 235.5 183 L 238.5 182 L 240 182.5 L 240 181 Z " /><path fill="rgb(22,22,22)" stroke="rgb(22,22,22)" stroke-width="1" opacity="0.9803921568627451" d="M 261.5 181 L 265 181.5 L 261.5 182 L 261.5 181 Z " /><path fill="rgb(22,22,22)" stroke="rgb(22,22,22)" stroke-width="1" opacity="0.9803921568627451" d="M 271.5 184 L 272.5 186 L 271.5 184 Z " /><path fill="rgb(22,22,22)" stroke="rgb(22,22,22)" stroke-width="1" opacity="0.9803921568627451" d="M 289.5 184 L 290.5 186 L 289.5 184 Z " /><path fill="rgb(22,22,22)" stroke="rgb(22,22,22)" stroke-width="1" opacity="0.9803921568627451" d="M 295.5 190 L 296.5 192 L 295.5 190 Z " /><path fill="rgb(22,22,22)" stroke="rgb(22,22,22)" stroke-width="1" opacity="0.9803921568627451" d="M 227.5 191 L 228 252.5 L 227 252.5 L 227.5 191 Z " /><path fill="rgb(22,22,22)" stroke="rgb(22,22,22)" stroke-width="1" opacity="0.9803921568627451" d="M 273.5 199 L 268.5 205 L 273.5 199 Z " /><path fill="rgb(22,22,22)" stroke="rgb(22,22,22)" stroke-width="1" opacity="0.9803921568627451" d="M 266.5 207 L 264.5 210 L 266.5 207 Z " /><path fill="rgb(22,22,22)" stroke="rgb(22,22,22)" stroke-width="1" opacity="0.9803921568627451" d="M 261.5 215 L 262 219.5 L 261 219.5 L 261.5 215 Z " /><path fill="rgb(22,22,22)" stroke="rgb(22,22,22)" stroke-width="1" opacity="0.9803921568627451" d="M 227.5 284 L 228 300.5 L 227 300.5 L 227.5 284 Z " /><path fill="rgb(22,22,22)" stroke="rgb(22,22,22)" stroke-width="1" opacity="0.9803921568627451" d="M 342.5 287 L 346 287.5 L 342.5 288 L 342.5 287 Z " /><path fill="rgb(22,22,22)" stroke="rgb(22,22,22)" stroke-width="1" opacity="0.9803921568627451" d="M 358.5 291 L 359.5 293 L 358.5 291 Z " /><path fill="rgb(22,22,22)" stroke="rgb(22,22,22)" stroke-width="1" opacity="0.9803921568627451" d="M 329.5 303 L 330 308.5 L 329 308.5 L 329.5 303 Z " /><path fill="rgb(22,22,22)" stroke="rgb(22,22,22)" stroke-width="1" opacity="0.9803921568627451" d="M 259.5 311 L 260 312.5 L 258 313.5 L 259.5 311 Z " /><path fill="rgb(22,22,22)" stroke="rgb(22,22,22)" stroke-width="1" opacity="0.9803921568627451" d="M 305.5 313 L 308.5 317 L 305.5 313 Z " /><path fill="rgb(22,22,22)" stroke="rgb(22,22,22)" stroke-width="1" opacity="0.9803921568627451" d="M 331.5 313 L 332.5 315 L 331.5 313 Z " /><path fill="rgb(22,22,22)" stroke="rgb(22,22,22)" stroke-width="1" opacity="0.9803921568627451" d="M 182.5 314 L 180.5 317 L 182.5 314 Z " /><path fill="rgb(22,22,22)" stroke="rgb(22,22,22)" stroke-width="1" opacity="0.9803921568627451" d="M 231.5 315 L 232.5 317 L 231.5 315 Z " /><path fill="rgb(22,22,22)" stroke="rgb(22,22,22)" stroke-width="1" opacity="0.9803921568627451" d="M 360.5 315 L 357.5 319 L 360.5 315 Z " /><path fill="rgb(22,22,22)" stroke="rgb(22,22,22)" stroke-width="1" opacity="0.9803921568627451" d="M 178.5 317 L 177.5 319 L 178.5 317 Z " /><path fill="rgb(22,22,22)" stroke="rgb(22,22,22)" stroke-width="1" opacity="0.9803921568627451" d="M 234.5 317 L 237.5 320 Q 238.8 317.8 240 320.5 L 174 321 Q 172.9 318.3 175.5 319 L 176.5 320 L 235.5 320 L 234.5 317 Z " /><path fill="rgb(22,22,22)" stroke="rgb(22,22,22)" stroke-width="1" opacity="0.9803921568627451" d="M 254.5 317 L 253.5 319 L 252 319.5 L 254 320.5 L 252.5 321 L 250.5 320 L 249 320.5 Q 248.2 317.9 251.5 319 L 254.5 317 Z " /><path fill="rgb(22,22,22)" stroke="rgb(22,22,22)" stroke-width="1" opacity="0.9803921568627451" d="M 311.5 318 L 315 319 L 314.5 321 L 312.5 321 L 255 320.5 L 312 319.5 L 311.5 318 Z " /><path fill="rgb(93,93,93)" stroke="rgb(93,93,93)" stroke-width="1" opacity="0.6705882352941176" d="M 216.5 120 L 221 120.5 L 216.5 121 L 216.5 120 Z " /><path fill="rgb(93,93,93)" stroke="rgb(93,93,93)" stroke-width="1" opacity="0.6705882352941176" d="M 225.5 120 L 229 124.5 L 229.5 185 L 231.5 184 L 231.5 185 L 228 186 L 228 124.5 L 225.5 120 Z " /><path fill="rgb(93,93,93)" stroke="rgb(93,93,93)" stroke-width="1" opacity="0.6705882352941176" d="M 209.5 121 L 214 121.5 L 209.5 122 L 209.5 121 Z " /><path fill="rgb(93,93,93)" stroke="rgb(93,93,93)" stroke-width="1" opacity="0.6705882352941176" d="M 202.5 122 L 208 122.5 L 202.5 123 L 202.5 122 Z " /><path fill="rgb(93,93,93)" stroke="rgb(93,93,93)" stroke-width="1" opacity="0.6705882352941176" d="M 196.5 123 L 201 123.5 L 196.5 124 L 196.5 123 Z " /><path fill="rgb(93,93,93)" stroke="rgb(93,93,93)" stroke-width="1" opacity="0.6705882352941176" d="M 189.5 124 L 194 124.5 L 189.5 125 L 189.5 124 Z " /><path fill="rgb(93,93,93)" stroke="rgb(93,93,93)" stroke-width="1" opacity="0.6705882352941176" d="M 182.5 125 L 187 125.5 L 182.5 126 L 182.5 125 Z " /><path fill="rgb(93,93,93)" stroke="rgb(93,93,93)" stroke-width="1" opacity="0.6705882352941176" d="M 175.5 126 L 181 126.5 L 175.5 127 L 175.5 126 Z " /><path fill="rgb(93,93,93)" stroke="rgb(93,93,93)" stroke-width="1" opacity="0.6705882352941176" d="M 173.5 127 L 174 129 Q 179.9 129.9 183 134.5 Q 185.7 136.8 185 142.5 L 184 142.5 L 184 138.5 L 181 133 L 173 130 L 173.5 127 Z " /><path fill="rgb(93,93,93)" stroke="rgb(93,93,93)" stroke-width="1" opacity="0.6705882352941176" d="M 254.5 177 L 262 177.5 L 254.5 178 L 254.5 177 Z " /><path fill="rgb(93,93,93)" stroke="rgb(93,93,93)" stroke-width="1" opacity="0.6705882352941176" d="M 270.5 177 L 276 177.5 L 270.5 178 L 270.5 177 Z " /><path fill="rgb(93,93,93)" stroke="rgb(93,93,93)" stroke-width="1" opacity="0.6705882352941176" d="M 248.5 178 L 253 178.5 L 248.5 179 L 248.5 178 Z " /><path fill="rgb(93,93,93)" stroke="rgb(93,93,93)" stroke-width="1" opacity="0.6705882352941176" d="M 277.5 178 L 282 179.5 L 280.5 180 L 277.5 179 L 277.5 178 Z " /><path fill="rgb(93,93,93)" stroke="rgb(93,93,93)" stroke-width="1" opacity="0.6705882352941176" d="M 244.5 179 L 247 179.5 L 241.5 181 L 241.5 180 L 244.5 179 Z " /><path fill="rgb(93,93,93)" stroke="rgb(93,93,93)" stroke-width="1" opacity="0.6705882352941176" d="M 283.5 180 L 296 188.5 Q 300.7 193.3 302 201.5 L 301 201.5 Q 298.9 189.1 289.5 184 L 283.5 181 L 283.5 180 Z " /><path fill="rgb(93,93,93)" stroke="rgb(93,93,93)" stroke-width="1" opacity="0.6705882352941176" d="M 250.5 181 L 261 181.5 L 250.5 182 L 250.5 181 Z " /><path fill="rgb(93,93,93)" stroke="rgb(93,93,93)" stroke-width="1" opacity="0.6705882352941176" d="M 235.5 182 L 237 182.5 L 233.5 184 L 233.5 183 L 235.5 182 Z " /><path fill="rgb(93,93,93)" stroke="rgb(93,93,93)" stroke-width="1" opacity="0.6705882352941176" d="M 244.5 182 L 249 182.5 L 244.5 183 L 244.5 182 Z " /><path fill="rgb(93,93,93)" stroke="rgb(93,93,93)" stroke-width="1" opacity="0.6705882352941176" d="M 262.5 182 L 266 182.5 L 262.5 183 L 262.5 182 Z " /><path fill="rgb(93,93,93)" stroke="rgb(93,93,93)" stroke-width="1" opacity="0.6705882352941176" d="M 240.5 183 L 243 183.5 L 240.5 184 L 240.5 183 Z " /><path fill="rgb(93,93,93)" stroke="rgb(93,93,93)" stroke-width="1" opacity="0.6705882352941176" d="M 267.5 183 L 275 187.5 L 274.5 189 L 274 187 L 267.5 184 L 267.5 183 Z " /><path fill="rgb(93,93,93)" stroke="rgb(93,93,93)" stroke-width="1" opacity="0.6705882352941176" d="M 231.5 186 L 233 186.5 L 229 188 L 228.5 309 L 228 188.5 L 231.5 186 Z " /><path fill="rgb(93,93,93)" stroke="rgb(93,93,93)" stroke-width="1" opacity="0.6705882352941176" d="M 275.5 190 L 276 193.5 L 275 193.5 L 275.5 190 Z " /><path fill="rgb(93,93,93)" stroke="rgb(93,93,93)" stroke-width="1" opacity="0.6705882352941176" d="M 274.5 195 L 275 196.5 L 264 209.5 L 261.5 215 L 261 213.5 L 274.5 195 Z " /><path fill="rgb(93,93,93)" stroke="rgb(93,93,93)" stroke-width="1" opacity="0.6705882352941176" d="M 302.5 203 L 303 206.5 L 302 206.5 L 302.5 203 Z " /><path fill="rgb(93,93,93)" stroke="rgb(93,93,93)" stroke-width="1" opacity="0.6705882352941176" d="M 303.5 208 L 304 306.5 L 303 306.5 L 303.5 208 Z " /><path fill="rgb(93,93,93)" stroke="rgb(93,93,93)" stroke-width="1" opacity="0.6705882352941176" d="M 260.5 216 L 261 308.5 L 255.5 317 L 250.5 319 L 250.5 318 L 258 312.5 L 260 308.5 L 260.5 216 Z " /><path fill="rgb(93,93,93)" stroke="rgb(93,93,93)" stroke-width="1" opacity="0.6705882352941176" d="M 342.5 286 Q 357 285 362 293.5 Q 366.4 298.6 365 309.5 Q 362.8 316.3 357.5 320 L 352.5 322 L 352.5 321 Q 358.3 319.8 361 315.5 Q 365.5 311 364 300.5 L 358.5 291 Q 353.8 285.7 342.5 287 Q 335.3 288.8 332 294.5 L 329.5 301 L 329 298.5 L 335.5 289 L 342.5 286 Z " /><path fill="rgb(93,93,93)" stroke="rgb(93,93,93)" stroke-width="1" opacity="0.6705882352941176" d="M 328.5 302 L 329 307.5 L 328 307.5 L 328.5 302 Z " /><path fill="rgb(93,93,93)" stroke="rgb(93,93,93)" stroke-width="1" opacity="0.6705882352941176" d="M 184.5 306 L 185 309.5 L 179.5 317 L 182 313.5 L 184.5 306 Z " /><path fill="rgb(93,93,93)" stroke="rgb(93,93,93)" stroke-width="1" opacity="0.6705882352941176" d="M 304.5 308 Q 305.6 314.4 310.5 317 L 314 318.5 L 312.5 319 L 305 312.5 L 304.5 308 Z " /><path fill="rgb(93,93,93)" stroke="rgb(93,93,93)" stroke-width="1" opacity="0.6705882352941176" d="M 229.5 310 L 233.5 316 L 240 319.5 L 238.5 319 L 236.5 319 L 230 313.5 L 229.5 310 Z " /><path fill="rgb(93,93,93)" stroke="rgb(93,93,93)" stroke-width="1" opacity="0.6705882352941176" d="M 330.5 312 L 334 318 Q 339.3 323 351 322.5 L 342.5 323 L 332 316.5 L 330.5 312 Z " /><path fill="rgb(93,93,93)" stroke="rgb(93,93,93)" stroke-width="1" opacity="0.6705882352941176" d="M 177.5 317 L 176.5 319 L 175 318.5 L 177.5 317 Z " /><path fill="rgb(22,22,22)" stroke="rgb(22,22,22)" stroke-width="1" opacity="1" d="M 220.5 121 L 225 121.5 L 224.5 123 L 227 123.5 L 226 125.5 L 227 126.5 L 227 184.5 L 226 186.5 L 227 189.5 L 228 283.5 L 227 284.5 L 227 300.5 L 228 301.5 L 228 310.5 L 233.5 318 Q 236.1 317.3 235 320 L 228.5 319 L 225.5 320 L 184.5 320 L 183.5 319 Q 182 321.5 176.5 320 L 176.5 319 L 182 317.5 Q 179.5 316 183 314.5 L 186 309.5 L 185 307.5 L 186 306.5 L 186 142.5 L 187 141.5 L 185 137.5 L 180.5 130 L 178.5 130 L 175 128.5 L 192.5 125 L 198.5 125 Q 200 127.5 201.5 124 L 204.5 125 L 214.5 122 L 216.5 122 L 220.5 121 Z M 225 316 L 225 318 L 227 317 L 225 316 Z M 227 317 L 227 319 L 229 318 L 227 317 Z " /><path fill="rgb(22,22,22)" stroke="rgb(22,22,22)" stroke-width="1" opacity="1" d="M 259.5 178 L 262.5 179 Q 263.8 176.8 268.5 178 L 272.5 180 L 273.5 179 L 283 181 L 283.5 183 L 285.5 183 Q 289.5 182.5 290 185.5 L 289.5 187 L 291.5 186 L 298 193.5 L 302 204.5 L 301 206.5 L 303 209.5 L 303 307.5 Q 300.5 309 304 310.5 L 307 317 L 309 317.5 L 308.5 319 L 310.5 318 L 311 320 L 307.5 319 L 305.5 320 L 303.5 320 L 261.5 320 L 260.5 319 L 258.5 320 L 256.5 320 L 253 319.5 L 257 318 Q 255.9 315.3 258.5 316 L 261 317 Q 262.3 314 258.5 315 L 258.5 314 Q 261.5 314.9 260 310.5 L 262 305.5 L 261 304.5 L 261 220.5 L 263 215.5 L 263 213.5 L 275 198.5 L 277 191.5 L 277 189.5 L 270.5 183 L 255.5 180 L 253.5 181 L 251.5 180 L 246.5 181 L 246.5 180 L 258.5 179 L 259.5 178 Z M 271 181 L 271 182 L 273 182 L 271 181 Z M 269 209 L 269 211 L 271 210 L 269 209 Z M 266 211 L 264 213 L 266 213 L 266 211 Z M 299 304 L 298 307 L 299 307 L 299 304 Z M 263 313 L 261 315 L 263 315 L 263 313 Z " /><path fill="rgb(22,22,22)" stroke="rgb(22,22,22)" stroke-width="1" opacity="1" d="M 347.5 287 L 349.5 288 Q 351 285.5 352.5 289 L 355.5 291 L 357 290.5 Q 356.3 292.8 358.5 292 L 361 294.5 L 364 302.5 L 363.5 305 L 362 305.5 L 364 306 L 362 309.5 L 363 311.5 L 356.5 319 L 355 318.5 L 353.5 321 L 350.5 322 L 348.5 322 L 345.5 321 L 341.5 321 L 337.5 318 L 336.5 319 L 333 315.5 Q 333.5 311 330 310.5 L 330 304.5 L 330 302.5 Q 329.3 295.8 334 294.5 L 333 293.5 L 336.5 290 Q 338 292.5 339.5 289 L 341.5 288 L 343.5 288 L 347.5 287 Z M 342 289 L 340 291 L 342 291 L 342 289 Z M 352 292 L 352 294 L 354 293 L 352 292 Z M 334 296 L 333 299 L 334 299 L 334 296 Z M 336 313 L 337 314 L 336 316 L 338 316 Q 340 312 336 313 Z M 353 317 L 353 319 L 355 318 L 353 317 Z " /><path fill="rgb(18,18,18)" stroke="rgb(18,18,18)" stroke-width="1" opacity="0.996078431372549" d="M 224.5 122 L 227 122.5 L 224.5 123 L 224.5 122 Z " /><path fill="rgb(18,18,18)" stroke="rgb(18,18,18)" stroke-width="1" opacity="0.996078431372549" d="M 206.5 123 L 209 123.5 L 206.5 124 L 206.5 123 Z " /><path fill="rgb(18,18,18)" stroke="rgb(18,18,18)" stroke-width="1" opacity="0.996078431372549" d="M 200.5 124 L 205 126.5 L 201.5 128 L 199 127.5 L 200.5 124 Z " /><path fill="rgb(18,18,18)" stroke="rgb(18,18,18)" stroke-width="1" opacity="0.996078431372549" d="M 226.5 124 L 227 125.5 L 225 126.5 L 226.5 124 Z " /><path fill="rgb(18,18,18)" stroke="rgb(18,18,18)" stroke-width="1" opacity="0.996078431372549" d="M 190.5 125 L 193 126.5 L 191.5 126 L 190.5 125 Z " /><path fill="rgb(18,18,18)" stroke="rgb(18,18,18)" stroke-width="1" opacity="0.996078431372549" d="M 181.5 128 L 184 129.5 L 184 131.5 L 183.5 133 L 182 130.5 L 182.5 129 L 181.5 128 Z " /><path fill="rgb(18,18,18)" stroke="rgb(18,18,18)" stroke-width="1" opacity="0.996078431372549" d="M 269.5 178 L 270.5 180 L 269.5 178 Z " /><path fill="rgb(18,18,18)" stroke="rgb(18,18,18)" stroke-width="1" opacity="0.996078431372549" d="M 242.5 181 L 244 181.5 L 241.5 183 L 242.5 181 Z " /><path fill="rgb(18,18,18)" stroke="rgb(18,18,18)" stroke-width="1" opacity="0.996078431372549" d="M 270.5 181 L 273 181.5 L 270.5 182 L 270.5 181 Z " /><path fill="rgb(18,18,18)" stroke="rgb(18,18,18)" stroke-width="1" opacity="0.996078431372549" d="M 274.5 184 L 275.5 186 L 274.5 184 Z " /><path fill="rgb(18,18,18)" stroke="rgb(18,18,18)" stroke-width="1" opacity="0.996078431372549" d="M 277.5 184 L 280 188.5 L 278.5 191 L 278 189.5 L 279 187.5 L 277.5 188 L 276 188.5 L 276.5 190 Q 273.5 188.5 276.5 187 Q 278.8 187.8 278 185.5 L 277.5 184 Z " /><path fill="rgb(18,18,18)" stroke="rgb(18,18,18)" stroke-width="1" opacity="0.996078431372549" d="M 227.5 185 L 228 187.5 L 225.5 190 L 227.5 185 Z " /><path fill="rgb(18,18,18)" stroke="rgb(18,18,18)" stroke-width="1" opacity="0.996078431372549" d="M 289.5 188 L 290 190.5 L 288.5 192 L 288 189.5 L 289.5 188 Z " /><path fill="rgb(18,18,18)" stroke="rgb(18,18,18)" stroke-width="1" opacity="0.996078431372549" d="M 291.5 188 Q 294.5 189.5 291.5 191 L 291.5 188 Z " /><path fill="rgb(18,18,18)" stroke="rgb(18,18,18)" stroke-width="1" opacity="0.996078431372549" d="M 276.5 191 L 277.5 193 L 276.5 191 Z " /><path fill="rgb(18,18,18)" stroke="rgb(18,18,18)" stroke-width="1" opacity="0.996078431372549" d="M 277.5 194 L 279 196.5 L 277 197.5 L 278 195.5 L 277.5 194 Z " /><path fill="rgb(18,18,18)" stroke="rgb(18,18,18)" stroke-width="1" opacity="0.996078431372549" d="M 298.5 195 L 297.5 201 L 296 199.5 L 298.5 195 Z " /><path fill="rgb(18,18,18)" stroke="rgb(18,18,18)" stroke-width="1" opacity="0.996078431372549" d="M 274.5 198 L 275.5 200 L 274.5 198 Z " /><path fill="rgb(18,18,18)" stroke="rgb(18,18,18)" stroke-width="1" opacity="0.996078431372549" d="M 268.5 205 L 267.5 207 L 268.5 205 Z " /><path fill="rgb(18,18,18)" stroke="rgb(18,18,18)" stroke-width="1" opacity="0.996078431372549" d="M 301.5 205 L 302 206.5 L 300 207.5 L 301.5 205 Z " /><path fill="rgb(18,18,18)" stroke="rgb(18,18,18)" stroke-width="1" opacity="0.996078431372549" d="M 271.5 206 L 270.5 208 L 271.5 206 Z " /><path fill="rgb(18,18,18)" stroke="rgb(18,18,18)" stroke-width="1" opacity="0.996078431372549" d="M 265.5 209 Q 268.3 210.2 266 211.5 Q 266.8 213.8 264.5 213 L 264 210.5 L 265.5 209 Z " /><path fill="rgb(18,18,18)" stroke="rgb(18,18,18)" stroke-width="1" opacity="0.996078431372549" d="M 269 209 L 271 209.5 L 267.5 214 L 267 212.5 L 269 209 Z " /><path fill="rgb(18,18,18)" stroke="rgb(18,18,18)" stroke-width="1" opacity="0.996078431372549" d="M 263.5 214 L 262.5 216 L 263.5 214 Z " /><path fill="rgb(18,18,18)" stroke="rgb(18,18,18)" stroke-width="1" opacity="0.996078431372549" d="M 269.5 214 L 270.5 216 L 269.5 214 Z " /><path fill="rgb(18,18,18)" stroke="rgb(18,18,18)" stroke-width="1" opacity="0.996078431372549" d="M 340.5 288 L 344 289.5 L 342 289.5 Q 341.3 291.8 343.5 291 L 343.5 292 L 340 290.5 L 340.5 288 Z " /><path fill="rgb(18,18,18)" stroke="rgb(18,18,18)" stroke-width="1" opacity="0.996078431372549" d="M 338.5 289 L 337.5 291 L 338.5 289 Z " /><path fill="rgb(18,18,18)" stroke="rgb(18,18,18)" stroke-width="1" opacity="0.996078431372549" d="M 354.5 289 L 355.5 291 L 354.5 289 Z " /><path fill="rgb(18,18,18)" stroke="rgb(18,18,18)" stroke-width="1" opacity="0.996078431372549" d="M 335.5 292 L 337 294.5 L 335 293.5 L 335.5 292 Z " /><path fill="rgb(18,18,18)" stroke="rgb(18,18,18)" stroke-width="1" opacity="0.996078431372549" d="M 337.5 292 L 339.5 292 L 341 292.5 L 338.5 294 L 337.5 292 Z " /><path fill="rgb(18,18,18)" stroke="rgb(18,18,18)" stroke-width="1" opacity="0.996078431372549" d="M 352 292 L 354.5 293 L 356 292.5 L 355.5 295 L 352 293.5 L 352 292 Z " /><path fill="rgb(18,18,18)" stroke="rgb(18,18,18)" stroke-width="1" opacity="0.996078431372549" d="M 342.5 293 Q 345.5 294.5 342.5 296 L 342.5 293 Z " /><path fill="rgb(18,18,18)" stroke="rgb(18,18,18)" stroke-width="1" opacity="0.996078431372549" d="M 358.5 293 L 359.5 295 L 358.5 293 Z " /><path fill="rgb(18,18,18)" stroke="rgb(18,18,18)" stroke-width="1" opacity="0.996078431372549" d="M 333.5 294 L 334 296.5 L 333.5 299 L 332.5 296 L 331 296.5 L 333.5 294 Z " /><path fill="rgb(18,18,18)" stroke="rgb(18,18,18)" stroke-width="1" opacity="0.996078431372549" d="M 340.5 294 L 339.5 296 L 338 295.5 L 340.5 294 Z " /><path fill="rgb(18,18,18)" stroke="rgb(18,18,18)" stroke-width="1" opacity="0.996078431372549" d="M 362.5 298 L 362 299.5 L 361.5 301 L 361 299.5 L 362.5 298 Z " /><path fill="rgb(18,18,18)" stroke="rgb(18,18,18)" stroke-width="1" opacity="0.996078431372549" d="M 329.5 302 L 330.5 304 L 329.5 302 Z " /><path fill="rgb(18,18,18)" stroke="rgb(18,18,18)" stroke-width="1" opacity="0.996078431372549" d="M 298.5 304 L 299 306.5 L 298 306.5 L 298.5 304 Z " /><path fill="rgb(18,18,18)" stroke="rgb(18,18,18)" stroke-width="1" opacity="0.996078431372549" d="M 225.5 305 L 227 307.5 L 226 307.5 L 225.5 305 Z " /><path fill="rgb(18,18,18)" stroke="rgb(18,18,18)" stroke-width="1" opacity="0.996078431372549" d="M 302.5 308 L 303.5 310 L 302.5 308 Z " /><path fill="rgb(18,18,18)" stroke="rgb(18,18,18)" stroke-width="1" opacity="0.996078431372549" d="M 363.5 308 L 362.5 310 L 363.5 308 Z " /><path fill="rgb(18,18,18)" stroke="rgb(18,18,18)" stroke-width="1" opacity="0.996078431372549" d="M 226.5 310 L 229 310.5 L 227.5 312 L 225 311.5 L 226.5 310 Z " /><path fill="rgb(18,18,18)" stroke="rgb(18,18,18)" stroke-width="1" opacity="0.996078431372549" d="M 361.5 311 L 360.5 313 L 361.5 311 Z " /><path fill="rgb(18,18,18)" stroke="rgb(18,18,18)" stroke-width="1" opacity="0.996078431372549" d="M 331.5 312 L 332.5 314 L 331.5 312 Z " /><path fill="rgb(18,18,18)" stroke="rgb(18,18,18)" stroke-width="1" opacity="0.996078431372549" d="M 334.5 312 L 337.5 313 L 339.5 312 L 339.5 313 Q 336.9 312.2 338 315.5 L 340.5 319 L 336.5 316 L 339.5 321 L 335 316.5 L 336.5 314 L 334.5 315 L 334.5 312 Z " /><path fill="rgb(18,18,18)" stroke="rgb(18,18,18)" stroke-width="1" opacity="0.996078431372549" d="M 354.5 312 L 356.5 313 Q 357.7 310.8 359 313.5 L 355.5 313 L 354.5 312 Z " /><path fill="rgb(18,18,18)" stroke="rgb(18,18,18)" stroke-width="1" opacity="0.996078431372549" d="M 262.5 313 L 263 315 Q 260 314 261 317 L 263.5 316 L 262.5 318 L 259.5 317 L 258 317.5 L 258.5 316 L 255.5 318 L 254 318.5 L 257.5 315 Q 261.8 315.8 262.5 313 Z " /><path fill="rgb(18,18,18)" stroke="rgb(18,18,18)" stroke-width="1" opacity="0.996078431372549" d="M 182.5 316 L 184 317.5 L 183.5 320 L 180.5 318 L 178.5 319 L 179.5 317 L 182.5 316 Z " /><path fill="rgb(18,18,18)" stroke="rgb(18,18,18)" stroke-width="1" opacity="0.996078431372549" d="M 225 316 L 229 317.5 L 228.5 320 L 226 319.5 L 227 317.5 L 224 318.5 L 225 316 Z " /><path fill="rgb(18,18,18)" stroke="rgb(18,18,18)" stroke-width="1" opacity="0.996078431372549" d="M 352.5 316 L 354.5 317 Q 355.8 314.8 357 317.5 L 355.5 319 L 353 318.5 L 352.5 316 Z " /><path fill="rgb(18,18,18)" stroke="rgb(18,18,18)" stroke-width="1" opacity="0.996078431372549" d="M 304.5 317 Q 307.5 318.5 304.5 320 L 304.5 317 Z " /><path fill="rgb(18,18,18)" stroke="rgb(18,18,18)" stroke-width="1" opacity="0.996078431372549" d="M 309.5 317 L 310 319 L 307.5 320 L 309.5 317 Z " /><path fill="rgb(18,18,18)" stroke="rgb(18,18,18)" stroke-width="1" opacity="0.996078431372549" d="M 252.5 319 L 251.5 321 L 250 320.5 L 252.5 319 Z " /><path fill="rgb(18,18,18)" stroke="rgb(18,18,18)" stroke-width="1" opacity="0.996078431372549" d="M 342.5 319 L 344 321.5 L 342 320.5 L 342.5 319 Z " /></svg>